<svg width="60" height="61" viewBox="0 0 60 61" fill="none" xmlns="http://www.w3.org/2000/svg">
<g clip-path="url(#clip0_633_43915)">
<path d="M41.9601 48.7199C38.1228 47.39 34.0804 46.7501 30.0201 46.8299C25.9597 46.7501 21.9173 47.39 18.0801 48.7199H13.0801V53.2899C13.0801 56.8599 20.6501 59.7499 29.9801 59.7499C39.3101 59.7499 46.8801 56.8599 46.8801 53.2899V48.7199H41.9601Z" fill="#A8A9FC" stroke="#212189" stroke-width="1.5" stroke-linecap="round" stroke-linejoin="round"/>
<path d="M30.0201 55.1798C39.3537 55.1798 46.9201 52.2875 46.9201 48.7198C46.9201 45.152 39.3537 42.2598 30.0201 42.2598C20.6865 42.2598 13.1201 45.152 13.1201 48.7198C13.1201 52.2875 20.6865 55.1798 30.0201 55.1798Z" fill="white" stroke="#212189" stroke-width="1.5" stroke-linecap="round" stroke-linejoin="round"/>
<path d="M30.0199 52.1203C34.9297 52.1203 38.9099 50.5981 38.9099 48.7203C38.9099 46.8425 34.9297 45.3203 30.0199 45.3203C25.1101 45.3203 21.1299 46.8425 21.1299 48.7203C21.1299 50.5981 25.1101 52.1203 30.0199 52.1203Z" fill="#E6E6FC"/>
<path d="M45.81 17.04C45.81 25.76 30.02 48.37 30.02 48.37C30.02 48.37 14.23 25.76 14.23 17.04C14.23 12.8522 15.8936 8.83598 18.8548 5.87478C21.816 2.91358 25.8322 1.25 30.02 1.25C34.2077 1.25 38.224 2.91358 41.1852 5.87478C44.1464 8.83598 45.81 12.8522 45.81 17.04V17.04Z" fill="#A8A9FC" stroke="#212189" stroke-width="1.5" stroke-linecap="round" stroke-linejoin="round"/>
<path d="M30.02 29.2001C36.1282 29.2001 41.08 24.2483 41.08 18.1401C41.08 12.0318 36.1282 7.08008 30.02 7.08008C23.9117 7.08008 18.96 12.0318 18.96 18.1401C18.96 24.2483 23.9117 29.2001 30.02 29.2001Z" fill="#4A4AF4"/>
<path d="M28.38 19.0105H31.66C33.0817 19.0099 34.4618 19.4911 35.575 20.3755C36.6882 21.2599 37.469 22.4954 37.79 23.8805L38.18 25.5805C39.6283 23.9974 40.585 22.0273 40.9333 19.9101C41.2816 17.7929 41.0065 15.6201 40.1416 13.6564C39.2767 11.6928 37.8593 10.0232 36.0621 8.851C34.265 7.67881 32.1656 7.05469 30.02 7.05469C27.8743 7.05469 25.775 7.67881 23.9778 8.851C22.1806 10.0232 20.7632 11.6928 19.8983 13.6564C19.0334 15.6201 18.7584 17.7929 19.1067 19.9101C19.455 22.0273 20.4116 23.9974 21.86 25.5805L22.25 23.8805C22.5709 22.4954 23.3517 21.2599 24.4649 20.3755C25.5782 19.4911 26.9582 19.0099 28.38 19.0105V19.0105ZM30.02 12.1605C30.6902 12.1605 31.3452 12.3598 31.9019 12.733C32.4586 13.1062 32.8917 13.6365 33.1463 14.2564C33.4009 14.8764 33.4655 15.558 33.3318 16.2147C33.1981 16.8715 32.8722 17.4736 32.3955 17.9447C31.9188 18.4158 31.3128 18.7345 30.6545 18.8603C29.9962 18.9862 29.3154 18.9135 28.6985 18.6516C28.0817 18.3896 27.5566 17.9502 27.1901 17.3891C26.8235 16.828 26.632 16.1706 26.64 15.5005C26.6505 14.611 27.0112 13.7615 27.644 13.1363C28.2767 12.511 29.1304 12.1604 30.02 12.1605V12.1605Z" stroke="#212189" stroke-width="1.5" stroke-linecap="round" stroke-linejoin="round"/>
<path d="M38.1804 25.5798L37.7904 23.8798C37.4694 22.4947 36.6886 21.2592 35.5754 20.3748C34.4622 19.4904 33.0821 19.0092 31.6604 19.0098H28.3804C26.9586 19.0092 25.5785 19.4904 24.4653 20.3748C23.3521 21.2592 22.5713 22.4947 22.2504 23.8798L21.8604 25.5798C22.8916 26.7206 24.1507 27.6325 25.5562 28.2566C26.9617 28.8807 28.4825 29.2032 30.0204 29.2032C31.5582 29.2032 33.079 28.8807 34.4845 28.2566C35.89 27.6325 37.1491 26.7206 38.1804 25.5798Z" fill="white" stroke="#212189" stroke-width="1.5" stroke-linecap="round" stroke-linejoin="round"/>
<path d="M30.0201 18.9202C31.8869 18.9202 33.4001 17.4069 33.4001 15.5402C33.4001 13.6734 31.8869 12.1602 30.0201 12.1602C28.1534 12.1602 26.6401 13.6734 26.6401 15.5402C26.6401 17.4069 28.1534 18.9202 30.0201 18.9202Z" fill="white" stroke="#212189" stroke-width="1.5" stroke-linecap="round" stroke-linejoin="round"/>
</g>
<defs>
<clipPath id="clip0_633_43915">
<rect width="60" height="60" fill="white" transform="translate(0 0.5)"/>
</clipPath>
</defs>
</svg>
