<svg width="60" height="61" viewBox="0 0 60 61" fill="none" xmlns="http://www.w3.org/2000/svg">
<g clip-path="url(#clip0_633_43922)">
<path d="M20.54 30.0282L20.94 29.4382C21.36 28.8682 21.74 28.3082 22.09 27.7482C22.28 27.4882 22.44 27.2282 22.6 26.9682C22.6498 26.9073 22.6966 26.8438 22.74 26.7782C26.02 21.5982 27.51 17.6782 27.48 15.2882C27.507 14.8813 27.448 14.4732 27.3067 14.0907C27.1654 13.7082 26.945 13.3597 26.66 13.0682C24.9 11.5282 20.45 13.0682 14 18.3082L13.53 18.6882L12.42 19.6882L11.71 20.2982C13.3426 22.5073 15.1128 24.6115 17.01 26.5982" fill="#4A4AF4"/>
<path d="M20.54 30.0282L20.94 29.4382C21.36 28.8682 21.74 28.3082 22.09 27.7482C22.28 27.4882 22.44 27.2282 22.6 26.9682C22.6498 26.9073 22.6966 26.8438 22.74 26.7782C26.02 21.5982 27.51 17.6782 27.48 15.2882C27.507 14.8813 27.448 14.4732 27.3067 14.0907C27.1654 13.7082 26.945 13.3597 26.66 13.0682C24.9 11.5282 20.45 13.0682 14 18.3082L13.53 18.6882L12.42 19.6882L11.71 20.2982C13.3426 22.5073 15.1128 24.6115 17.01 26.5982" stroke="#212189" stroke-width="1.55" stroke-linecap="round" stroke-linejoin="round"/>
<path d="M40.2602 43.6296C42.8073 44.8305 45.4178 45.8921 48.0802 46.8096C48.3302 46.2396 48.5702 45.6696 48.7802 45.1296C48.8674 44.9247 48.9409 44.7142 49.0002 44.4996C52.2002 36.3396 52.3202 31.3796 50.2402 30.1496C49.8804 29.9708 49.4871 29.8695 49.0858 29.8522C48.6844 29.835 48.2839 29.9023 47.9102 30.0496C45.5902 30.7496 42.2802 33.4196 38.3302 38.2596L37.5702 39.2596C37.1902 39.7396 36.8002 40.2596 36.4102 40.7596" fill="#4A4AF4"/>
<path d="M40.2602 43.6296C42.8073 44.8305 45.4178 45.8921 48.0802 46.8096C48.3302 46.2396 48.5702 45.6696 48.7802 45.1296C48.8674 44.9247 48.9409 44.7142 49.0002 44.4996C52.2002 36.3396 52.3202 31.3796 50.2402 30.1496C49.8804 29.9708 49.4871 29.8695 49.0858 29.8522C48.6844 29.835 48.2839 29.9023 47.9102 30.0496C45.5902 30.7496 42.2802 33.4196 38.3302 38.2596L37.5702 39.2596C37.1902 39.7396 36.8002 40.2596 36.4102 40.7596" stroke="#212189" stroke-width="1.55" stroke-linecap="round" stroke-linejoin="round"/>
<path d="M21.4805 51.3604L9.48047 59.7004L14.0005 45.7704C14.2423 45.0237 14.6586 44.3454 15.2148 43.7916C15.7711 43.2379 16.4512 42.8246 17.199 42.5861C17.9467 42.3476 18.7406 42.2907 19.5147 42.4202C20.2888 42.5496 21.021 42.8616 21.6505 43.3304V43.3304C22.2675 43.8086 22.764 44.4247 23.1002 45.1294C23.4364 45.834 23.6029 46.6076 23.5863 47.3881C23.5698 48.1687 23.3707 48.9345 23.005 49.6243C22.6394 50.3141 22.1172 50.9086 21.4805 51.3604Z" fill="#E6E6FC" stroke="#212189" stroke-width="1.55" stroke-linecap="round" stroke-linejoin="round"/>
<path d="M18.9102 34.9998C21.8101 38.7439 25.631 41.6725 30.0002 43.4998L31.0002 43.9098C46.5202 19.2798 37.7802 12.8498 18.9202 35.0298L18.9102 34.9998Z" fill="#4A4AF4" stroke="#212189" stroke-width="1.55" stroke-linecap="round" stroke-linejoin="round"/>
<path d="M55.0795 8.72025C55.0896 8.74597 55.0896 8.77453 55.0795 8.80025C55.0795 9.46025 54.9795 10.1402 54.8795 10.8902C54.8795 11.2002 54.7895 11.5202 54.7395 11.8402C54.7395 12.0602 54.6595 12.2702 54.6195 12.4802C54.5795 12.6902 54.5295 12.9002 54.4895 13.1102C54.3495 13.7502 54.1895 14.4202 53.9995 15.1102C52.1895 21.8302 48.0995 30.8202 41.3495 41.8802L40.2995 43.5802C38.7662 42.8602 37.3329 42.1336 35.9995 41.4002C30.4193 38.3392 25.2313 34.6119 20.5495 30.3002C19.2395 29.0902 18.0695 27.9202 17.0195 26.8102C17.4495 26.2902 17.8795 25.8102 18.3295 25.3002C26.9095 15.5002 34.3395 8.82025 40.2195 5.05025C40.8395 4.66025 41.4395 4.28025 42.0095 3.97025C42.5795 3.66025 43.2595 3.28025 43.8495 2.97025L44.9995 2.50025C45.5595 2.27025 46.0995 2.07025 46.6095 1.90025L47.1195 1.75025C48.4101 1.33371 49.7813 1.23087 51.1195 1.45025C51.2515 1.4707 51.3819 1.50078 51.5095 1.54025C51.8602 1.65705 52.1958 1.81481 52.5095 2.01025C52.6199 2.07441 52.7267 2.14451 52.8295 2.22025C52.9995 2.35025 53.1695 2.50025 53.3295 2.65025C53.4895 2.80025 53.6295 2.99025 53.7795 3.17025C53.8833 3.31153 53.9737 3.46218 54.0495 3.62025L54.1495 3.78025C54.8785 5.31976 55.1988 7.02105 55.0795 8.72025Z" fill="white" stroke="#212189" stroke-width="1.55" stroke-linecap="round" stroke-linejoin="round"/>
<path d="M55.0797 8.71988C55.0898 8.7456 55.0898 8.77416 55.0797 8.79988C55.0494 9.49623 54.9826 10.1905 54.8797 10.8799C54.8797 11.1999 54.7897 11.5199 54.7397 11.8799L54.6197 12.5199C54.6197 12.7299 54.5297 12.9299 54.4897 13.1399C54.3497 13.7799 54.1797 14.4499 53.9997 15.1399C48.8889 12.5473 44.2346 9.13929 40.2197 5.04988C40.8397 4.64988 41.4397 4.27988 42.0197 3.96988C42.5997 3.65988 43.2597 3.27988 43.8497 2.96988C44.2397 2.77988 44.6197 2.60988 44.9897 2.44988C45.5142 2.21868 46.0518 2.01834 46.5997 1.84988L47.1197 1.69988C48.4096 1.27989 49.7817 1.17698 51.1197 1.39988C51.2555 1.42257 51.3892 1.45601 51.5197 1.49988C51.873 1.60542 52.2097 1.76028 52.5197 1.95988L52.8397 2.15988C53.0156 2.2958 53.1826 2.44276 53.3397 2.59988C53.4997 2.75988 53.6397 2.93988 53.7897 3.11988C53.9397 3.29988 53.9697 3.40988 54.0597 3.56988C54.0859 3.62528 54.116 3.67875 54.1497 3.72988C54.8872 5.28441 55.2077 7.00404 55.0797 8.71988V8.71988Z" fill="#4A4AF4" stroke="#212189" stroke-width="1.55" stroke-linecap="round" stroke-linejoin="round"/>
<path d="M33.6196 32.4697C35.8398 32.4697 37.6396 30.6699 37.6396 28.4497C37.6396 26.2295 35.8398 24.4297 33.6196 24.4297C31.3994 24.4297 29.5996 26.2295 29.5996 28.4497C29.5996 30.6699 31.3994 32.4697 33.6196 32.4697Z" fill="#E6E6FC" stroke="#212189" stroke-width="1.55" stroke-linejoin="round"/>
<path d="M41.06 22.3398C43.2802 22.3398 45.08 20.54 45.08 18.3198C45.08 16.0996 43.2802 14.2998 41.06 14.2998C38.8399 14.2998 37.04 16.0996 37.04 18.3198C37.04 20.54 38.8399 22.3398 41.06 22.3398Z" fill="#A8A9FC" stroke="#212189" stroke-width="1.55" stroke-linecap="round" stroke-linejoin="round"/>
<path d="M41.06 22.3398C43.2802 22.3398 45.08 20.54 45.08 18.3198C45.08 16.0996 43.2802 14.2998 41.06 14.2998C38.8399 14.2998 37.04 16.0996 37.04 18.3198C37.04 20.54 38.8399 22.3398 41.06 22.3398Z" fill="#E6E6FC" stroke="#212189" stroke-width="1.55" stroke-linejoin="round"/>
<path d="M12.4802 32.4995L4.91016 37.7195L7.75016 28.9595C7.90343 28.491 8.1659 28.0655 8.51593 27.7183C8.86596 27.3712 9.29352 27.1122 9.76333 26.9627C10.2331 26.8133 10.7318 26.7777 11.218 26.8588C11.7043 26.94 12.1643 27.1356 12.5602 27.4295V27.4295C12.9602 27.7234 13.2841 28.1087 13.5049 28.5533C13.7256 28.9979 13.8366 29.4889 13.8288 29.9852C13.821 30.4815 13.6945 30.9687 13.4598 31.4061C13.2252 31.8436 12.8893 32.2185 12.4802 32.4995Z" fill="#E6E6FC" stroke="#212189" stroke-width="1.55" stroke-linecap="round" stroke-linejoin="round"/>
<path d="M39.7204 51.9102L32.1504 57.1502L35.0004 48.3902C35.1537 47.9216 35.4161 47.4962 35.7662 47.149C36.1162 46.8018 36.5438 46.5428 37.0136 46.3934C37.4834 46.2439 37.982 46.2083 38.4683 46.2895C38.9546 46.3707 39.4146 46.5663 39.8104 46.8602C40.2059 47.1553 40.5255 47.5403 40.7429 47.9834C40.9602 48.4264 41.0689 48.9149 41.0601 49.4083C41.0513 49.9017 40.9252 50.3859 40.6923 50.821C40.4593 51.256 40.1262 51.6294 39.7204 51.9102V51.9102Z" fill="#E6E6FC" stroke="#212189" stroke-width="1.55" stroke-linecap="round" stroke-linejoin="round"/>
<path d="M52.3903 17.9397C52.2103 19.2397 54.3903 13.5997 53.9903 15.1297C51.9903 22.3497 48.0703 30.5797 40.3703 42.7897L38.6303 41.8597C37.3179 41.3038 36.0565 40.6346 34.8603 39.8597C34.666 39.7177 34.508 39.5318 34.3991 39.3172C34.2902 39.1026 34.2334 38.8654 34.2334 38.6247C34.2334 38.3841 34.2902 38.1468 34.3991 37.9322C34.508 37.7176 34.666 37.5318 34.8603 37.3897C40.4332 31.6751 45.0038 25.0626 48.3803 17.8297C48.5445 17.4632 48.8463 17.176 49.2205 17.0301C49.5947 16.8842 50.0112 16.8912 50.3803 17.0497L52.3903 17.9397Z" fill="#E6E6FC"/>
<path d="M55.0797 8.71988C55.0898 8.7456 55.0898 8.77416 55.0797 8.79988C55.0494 9.49623 54.9826 10.1905 54.8797 10.8799C54.8797 11.1999 54.7897 11.5199 54.7397 11.8799L54.6197 12.5199C54.6197 12.7299 54.5297 12.9299 54.4897 13.1399C54.3497 13.7799 54.1797 14.4499 53.9997 15.1399C48.8889 12.5473 44.2346 9.13929 40.2197 5.04988C40.8397 4.64988 41.4397 4.27988 42.0197 3.96988C42.5997 3.65988 43.2597 3.27988 43.8497 2.96988C44.2397 2.77988 44.6197 2.60988 44.9897 2.44988C45.5142 2.21868 46.0518 2.01834 46.5997 1.84988L47.1197 1.69988C48.4096 1.27989 49.7817 1.17698 51.1197 1.39988C51.2555 1.42257 51.3892 1.45601 51.5197 1.49988C51.873 1.60542 52.2097 1.76028 52.5197 1.95988L52.8397 2.15988C53.0156 2.2958 53.1826 2.44276 53.3397 2.59988C53.4997 2.75988 53.6397 2.93988 53.7897 3.11988C53.9397 3.29988 53.9697 3.40988 54.0597 3.56988C54.0859 3.62528 54.116 3.67875 54.1497 3.72988C54.8872 5.28441 55.2077 7.00404 55.0797 8.71988V8.71988Z" fill="#4A4AF4" stroke="#212189" stroke-width="1.55" stroke-linecap="round" stroke-linejoin="round"/>
<path d="M33.6196 32.4697C35.8398 32.4697 37.6396 30.6699 37.6396 28.4497C37.6396 26.2295 35.8398 24.4297 33.6196 24.4297C31.3994 24.4297 29.5996 26.2295 29.5996 28.4497C29.5996 30.6699 31.3994 32.4697 33.6196 32.4697Z" fill="#A8A9FC" stroke="#212189" stroke-width="1.55" stroke-linejoin="round"/>
<path d="M41.06 22.3398C43.2802 22.3398 45.08 20.54 45.08 18.3198C45.08 16.0996 43.2802 14.2998 41.06 14.2998C38.8399 14.2998 37.04 16.0996 37.04 18.3198C37.04 20.54 38.8399 22.3398 41.06 22.3398Z" fill="#A8A9FC" stroke="#212189" stroke-width="1.55" stroke-linejoin="round"/>
<path d="M55.0797 8.71988C55.0898 8.7456 55.0898 8.77416 55.0797 8.79988C55.0494 9.49623 54.9826 10.1905 54.8797 10.8799C54.8797 11.1999 54.7897 11.5199 54.7397 11.8799L54.6197 12.5199C54.6197 12.7299 54.5297 12.9299 54.4897 13.1399C54.3497 13.7799 54.1797 14.4499 53.9997 15.1399C48.8889 12.5473 44.2346 9.13929 40.2197 5.04988C40.8397 4.64988 41.4397 4.27988 42.0197 3.96988C42.5997 3.65988 43.2597 3.27988 43.8497 2.96988C44.2397 2.77988 44.6197 2.60988 44.9897 2.44988C45.5142 2.21868 46.0518 2.01834 46.5997 1.84988L47.1197 1.69988C48.4096 1.27989 49.7817 1.17698 51.1197 1.39988C51.2555 1.42257 51.3892 1.45601 51.5197 1.49988C51.873 1.60542 52.2097 1.76028 52.5197 1.95988L52.8397 2.15988C53.0156 2.2958 53.1826 2.44276 53.3397 2.59988C53.4997 2.75988 53.6397 2.93988 53.7897 3.11988C53.9397 3.29988 53.9697 3.40988 54.0597 3.56988C54.0859 3.62528 54.116 3.67875 54.1497 3.72988C54.8872 5.28441 55.2077 7.00404 55.0797 8.71988V8.71988Z" stroke="#212189" stroke-width="1.55" stroke-linecap="round" stroke-linejoin="round"/>
<path d="M18.3295 25.2998C17.8795 25.7898 17.4495 26.2998 17.0195 26.8098" stroke="#212189" stroke-width="1.55" stroke-linecap="round" stroke-linejoin="round"/>
<path d="M27.4902 15.5502C31.3742 11.6361 35.6386 8.11869 40.2202 5.05025C40.8402 4.66025 41.4402 4.28025 42.0102 3.97025C42.5802 3.66025 43.2602 3.28025 43.8502 2.97025L45.0002 2.50025C45.5602 2.27025 46.1002 2.06025 46.6102 1.90025L47.1202 1.75025C48.4108 1.33371 49.782 1.23087 51.1202 1.45025C51.2523 1.4707 51.3826 1.50078 51.5102 1.54025C51.8609 1.65705 52.1965 1.81481 52.5102 2.01025C52.6206 2.07441 52.7274 2.14451 52.8302 2.22025C53.0002 2.35025 53.1702 2.50025 53.3302 2.65025C53.4902 2.80025 53.6302 2.99025 53.7802 3.17025C53.884 3.31153 53.9744 3.46218 54.0502 3.62025L54.1502 3.78025C54.862 5.34511 55.1549 7.06809 55.0002 8.78025C55.0103 8.80597 55.0103 8.83453 55.0002 8.86025C55.0002 9.52025 54.9002 10.2002 54.8002 10.9502C54.8002 11.2602 54.7102 11.5802 54.6602 11.9002C54.6602 12.1202 54.5802 12.3302 54.5402 12.5402C54.5002 12.7502 54.4502 12.9602 54.4102 13.1702C54.2702 13.8102 54.1102 14.4802 53.9202 15.1702C52.4174 20.3326 50.4076 25.3336 47.9202 30.1003C46.2202 33.4803 44.1802 37.1469 41.8002 41.1002C41.6402 41.3802 41.4602 41.6502 41.2902 41.9402L40.2402 43.6402" stroke="#212189" stroke-width="1.55" stroke-linecap="round" stroke-linejoin="round"/>
<path d="M55.0795 8.72025C55.0896 8.74597 55.0896 8.77453 55.0795 8.80025C55.0795 9.46025 54.9795 10.1402 54.8795 10.8902C54.8795 11.2002 54.7895 11.5202 54.7395 11.8402C54.7395 12.0602 54.6595 12.2702 54.6195 12.4802C54.5795 12.6902 54.5295 12.9002 54.4895 13.1102C54.3495 13.7502 54.1895 14.4202 53.9995 15.1102C52.1895 21.8302 48.0995 30.8202 41.3495 41.8802L40.2995 43.5802C38.7662 42.8602 37.3329 42.1336 35.9995 41.4002C30.4193 38.3392 25.2313 34.6119 20.5495 30.3002C19.2395 29.0902 18.0695 27.9202 17.0195 26.8102C17.4495 26.2902 17.8795 25.8102 18.3295 25.3002C26.9095 15.5002 34.3395 8.82025 40.2195 5.05025C40.8395 4.66025 41.4395 4.28025 42.0095 3.97025C42.5795 3.66025 43.2595 3.28025 43.8495 2.97025L44.9995 2.50025C45.5595 2.27025 46.0995 2.07025 46.6095 1.90025L47.1195 1.75025C48.4101 1.33371 49.7813 1.23087 51.1195 1.45025C51.2515 1.4707 51.3819 1.50078 51.5095 1.54025C51.8602 1.65705 52.1958 1.81481 52.5095 2.01025C52.6199 2.07441 52.7267 2.14451 52.8295 2.22025C52.9995 2.35025 53.1695 2.50025 53.3295 2.65025C53.4895 2.80025 53.6295 2.99025 53.7795 3.17025C53.8833 3.31153 53.9737 3.46218 54.0495 3.62025L54.1495 3.78025C54.8785 5.31976 55.1988 7.02105 55.0795 8.72025Z" stroke="#212189" stroke-width="1.55" stroke-linecap="round" stroke-linejoin="round"/>
</g>
<defs>
<clipPath id="clip0_633_43922">
<rect width="60" height="60" fill="white" transform="translate(0 0.5)"/>
</clipPath>
</defs>
</svg>
