<svg width="60" height="61" viewBox="0 0 60 61" fill="none" xmlns="http://www.w3.org/2000/svg">
<g clip-path="url(#clip0_633_43936)">
<path d="M39.7993 32.2041C42.0195 32.2041 43.8193 30.4042 43.8193 28.1841C43.8193 25.9639 42.0195 24.1641 39.7993 24.1641C37.5791 24.1641 35.7793 25.9639 35.7793 28.1841C35.7793 30.4042 37.5791 32.2041 39.7993 32.2041Z" fill="#E6E6FC" stroke="#212189" stroke-width="1.5" stroke-linecap="round" stroke-linejoin="round"/>
<path d="M51.6591 44.6044C55.2711 44.6044 58.1991 41.6764 58.1991 38.0644C58.1991 34.4525 55.2711 31.5244 51.6591 31.5244C48.0472 31.5244 45.1191 34.4525 45.1191 38.0644C45.1191 41.6764 48.0472 44.6044 51.6591 44.6044Z" fill="white" stroke="#212189" stroke-width="1.5" stroke-linecap="round" stroke-linejoin="round"/>
<path d="M41.6393 42.1749L20.0893 49.7048L9.8393 43.5748C9.71327 41.9911 10.045 40.4046 10.7949 39.004C11.5448 37.6035 12.6814 36.448 14.0693 35.6749L28.4093 27.5948C28.7054 27.4277 28.9504 27.183 29.1178 26.887C29.2852 26.5909 29.3687 26.2549 29.3593 25.9149V25.9149V20.4648L0.779298 37.8649V42.7048C0.729168 45.354 1.32283 47.9757 2.5093 50.3448C3.53895 52.4091 4.97794 54.2422 6.73865 55.7325C8.49937 57.2229 10.545 58.3393 12.7509 59.0138C14.9569 59.6883 17.277 59.9068 19.5701 59.656C21.8632 59.4052 24.0813 58.6903 26.0893 57.5549L40.6693 49.3248C40.9971 49.1515 41.2667 48.8857 41.4445 48.5603C41.6223 48.2349 41.7005 47.8644 41.6693 47.4949V47.4949L41.6393 42.1749Z" fill="#A8A9FC" stroke="#212189" stroke-width="1.5" stroke-linecap="round" stroke-linejoin="round"/>
<path d="M22.8398 30.7349L28.4098 27.5948C28.7059 27.4277 28.9509 27.183 29.1182 26.887C29.2856 26.5909 29.3691 26.2549 29.3598 25.9149V25.9149V20.4648L20.7598 21.4648L22.8298 25.1549L22.8398 30.7349Z" fill="#4A4AF4" stroke="#212189" stroke-width="1.5" stroke-linecap="round" stroke-linejoin="round"/>
<path d="M32.5898 43.4946L34.6698 47.1846V52.7246L40.6698 49.3346C40.9977 49.1613 41.2673 48.8955 41.4451 48.5701C41.6229 48.2447 41.7011 47.8741 41.6698 47.5046V47.5046V42.1846L32.5898 43.4946Z" fill="#4A4AF4" stroke="#212189" stroke-width="1.5" stroke-linecap="round" stroke-linejoin="round"/>
<path d="M2.51957 44.8141C-1.58043 36.6341 1.82957 26.6442 9.79957 22.1542L23.9596 14.1542C24.3954 13.9114 24.9092 13.8498 25.39 13.9827C25.8709 14.1155 26.2802 14.4321 26.5296 14.8641L29.1296 19.4741C29.3741 19.9106 29.4357 20.4262 29.3007 20.908C29.1658 21.3897 28.8453 21.7983 28.4096 22.0442L14.0696 30.1241C12.3512 31.0654 11.03 32.595 10.3485 34.4319C9.66704 36.2688 9.67095 38.2899 10.3596 40.1241C10.7843 41.1723 11.4264 42.1185 12.2436 42.9004C13.0607 43.6822 14.0344 44.2819 15.1003 44.6599C16.1663 45.0379 17.3002 45.1856 18.4274 45.0933C19.5546 45.0009 20.6494 44.6706 21.6396 44.1241L36.2296 35.9042C36.666 35.6596 37.1816 35.5981 37.6634 35.733C38.1451 35.868 38.5537 36.1884 38.7996 36.6241L41.3996 41.2241C41.6446 41.6621 41.7064 42.1792 41.5715 42.6626C41.4366 43.146 41.116 43.5564 40.6796 43.8042L26.0996 52.0242C24.0916 53.1596 21.8735 53.8744 19.5804 54.1252C17.2873 54.376 14.9672 54.1575 12.7612 53.483C10.5552 52.8085 8.50964 51.6921 6.74893 50.2018C4.98821 48.7114 3.54923 46.8783 2.51957 44.8141V44.8141Z" fill="white" stroke="#212189" stroke-width="1.5" stroke-linecap="round" stroke-linejoin="round"/>
<path d="M30.2197 39.2743L36.2197 35.9043C36.6562 35.6597 37.1718 35.5982 37.6535 35.7332C38.1353 35.8681 38.5439 36.1886 38.7897 36.6243L41.3897 41.2243C41.6348 41.6622 41.6966 42.1794 41.5617 42.6627C41.4268 43.1461 41.1061 43.5566 40.6697 43.8043L34.6697 47.1743" fill="#4A4AF4"/>
<path d="M30.2197 39.2743L36.2197 35.9043C36.6562 35.6597 37.1718 35.5982 37.6535 35.7332C38.1353 35.8681 38.5439 36.1886 38.7897 36.6243L41.3897 41.2243C41.6348 41.6622 41.6966 42.1794 41.5617 42.6627C41.4268 43.1461 41.1061 43.5566 40.6697 43.8043L34.6697 47.1743" stroke="#212189" stroke-width="1.5" stroke-linecap="round" stroke-linejoin="round"/>
<path d="M18.3994 17.3047L23.9594 14.1747C24.3952 13.9319 24.909 13.8703 25.3899 14.0032C25.8707 14.136 26.28 14.4526 26.5294 14.8846L29.1294 19.4946C29.374 19.9311 29.4355 20.4467 29.3006 20.9285C29.1656 21.4102 28.8451 21.8187 28.4094 22.0646L22.8394 25.1846" fill="#4A4AF4"/>
<path d="M18.3994 17.3047L23.9594 14.1747C24.3952 13.9319 24.909 13.8703 25.3899 14.0032C25.8707 14.136 26.28 14.4526 26.5294 14.8846L29.1294 19.4946C29.374 19.9311 29.4355 20.4467 29.3006 20.9285C29.1656 21.4102 28.8451 21.8187 28.4094 22.0646L22.8394 25.1846" stroke="#212189" stroke-width="1.5" stroke-linecap="round" stroke-linejoin="round"/>
<path d="M30.2197 39.2744L34.6797 47.1744V52.7144" stroke="#212189" stroke-width="1.5" stroke-linecap="round" stroke-linejoin="round"/>
<path d="M22.8402 30.7347V25.1847L18.4102 17.3047" stroke="#212189" stroke-width="1.5" stroke-linecap="round" stroke-linejoin="round"/>
<path d="M35.85 18.7046L39.38 13.0147C39.4648 12.8762 39.5145 12.7191 39.525 12.557C39.5354 12.395 39.5063 12.2328 39.44 12.0846L36.75 5.9546C36.6762 5.78421 36.6513 5.59671 36.6781 5.41298C36.7049 5.22924 36.7824 5.05654 36.9017 4.91432C37.0211 4.7721 37.1777 4.66591 37.3541 4.60768C37.5304 4.54945 37.7194 4.54147 37.9 4.58461L44.41 6.1747C44.5666 6.21334 44.7303 6.21349 44.887 6.17518C45.0437 6.13687 45.1889 6.06115 45.31 5.9546L50.31 1.49464C50.4492 1.37134 50.62 1.28928 50.8033 1.2577C50.9865 1.22612 51.1749 1.24621 51.3474 1.31581C51.5198 1.38541 51.6694 1.50181 51.7794 1.65175C51.8894 1.80168 51.9554 1.97931 51.97 2.16469L52.46 8.84462C52.4716 9.00613 52.5223 9.16245 52.6076 9.30006C52.693 9.43767 52.8105 9.55249 52.95 9.63466L58.74 13.0147C58.8985 13.1099 59.0275 13.2472 59.1126 13.4114C59.1978 13.5756 59.2357 13.7601 59.2222 13.9446C59.2088 14.129 59.1444 14.3061 59.0363 14.4562C58.9283 14.6063 58.7807 14.7235 58.61 14.7947L52.41 17.3346C52.26 17.3955 52.127 17.4921 52.0225 17.6157C51.918 17.7394 51.8451 17.8866 51.81 18.0447L50.39 24.5946C50.3498 24.7766 50.2595 24.9437 50.1294 25.0772C49.9992 25.2106 49.8344 25.305 49.6535 25.3497C49.4725 25.3945 49.2827 25.3876 49.1054 25.3302C48.9281 25.2728 48.7704 25.167 48.65 25.0247L44.33 19.9047C44.2236 19.7815 44.0888 19.6861 43.9371 19.6268C43.7855 19.5676 43.6217 19.5462 43.46 19.5646L36.8 20.2246C36.6145 20.243 36.4276 20.2093 36.2603 20.1271C36.093 20.0449 35.952 19.9176 35.8532 19.7595C35.7544 19.6015 35.7017 19.419 35.7012 19.2326C35.7006 19.0462 35.7522 18.8633 35.85 18.7046V18.7046Z" fill="#A8A9FC" stroke="#212189" stroke-width="1.5" stroke-linecap="round" stroke-linejoin="round"/>
</g>
<defs>
<clipPath id="clip0_633_43936">
<rect width="60" height="60" fill="white" transform="translate(0 0.5)"/>
</clipPath>
</defs>
</svg>
