<svg width="60" height="61" viewBox="0 0 60 61" fill="none" xmlns="http://www.w3.org/2000/svg">
<mask id="mask0_633_43929" style="mask-type:luminance" maskUnits="userSpaceOnUse" x="5" y="9" width="51" height="44">
<path d="M55.2002 9.40039H5.2002V52.3004H55.2002V9.40039Z" fill="white"/>
</mask>
<g mask="url(#mask0_633_43929)">
<path d="M43.4006 12.2002L40.9006 10.4002C40.6006 10.2002 40.3006 10.0002 39.9006 9.9002C39.5006 9.8002 39.2006 9.8002 38.8006 9.9002L7.40059 17.8002C6.90059 17.9002 6.50059 18.2002 6.10059 18.6002C5.80059 19.0002 5.60059 19.5002 5.60059 20.0002V42.2002C5.60059 42.6002 5.80059 43.0002 6.00059 43.4002C6.20059 43.8002 6.50059 44.1002 6.90059 44.3002L9.40059 46.1002L40.0006 36.7002C40.5006 36.6002 40.9006 36.3002 41.3006 35.9002C41.6006 35.5002 41.8006 35.0002 41.8006 34.5002L43.4006 12.2002Z" fill="#4949F3"/>
</g>
<mask id="mask1_633_43929" style="mask-type:luminance" maskUnits="userSpaceOnUse" x="5" y="9" width="51" height="44">
<path d="M55.2002 9.40039H5.2002V52.3004H55.2002V9.40039Z" fill="white"/>
</mask>
<g mask="url(#mask1_633_43929)">
<path d="M43.4006 12.2002L40.9006 10.4002C40.6006 10.2002 40.3006 10.0002 39.9006 9.9002C39.5006 9.8002 39.2006 9.8002 38.8006 9.9002L7.40059 17.8002C6.90059 17.9002 6.50059 18.2002 6.10059 18.6002C5.80059 19.0002 5.60059 19.5002 5.60059 20.0002V42.2002C5.60059 42.6002 5.80059 43.0002 6.00059 43.4002C6.20059 43.8002 6.50059 44.1002 6.90059 44.3002L9.40059 46.1002L40.0006 36.7002C40.5006 36.6002 40.9006 36.3002 41.3006 35.9002C41.6006 35.5002 41.8006 35.0002 41.8006 34.5002L43.4006 12.2002Z" stroke="#202188" stroke-linecap="round" stroke-linejoin="round"/>
</g>
<mask id="mask2_633_43929" style="mask-type:luminance" maskUnits="userSpaceOnUse" x="5" y="9" width="51" height="44">
<path d="M55.2002 9.40039H5.2002V52.3004H55.2002V9.40039Z" fill="white"/>
</mask>
<g mask="url(#mask2_633_43929)">
<path d="M41.7 12.0008L10.3 19.8008C9.8 19.9008 9.4 20.2008 9 20.6008C8.7 21.0008 8.5 21.5008 8.5 22.0008V44.2008C8.5 44.6008 8.6 44.9008 8.7 45.2008C8.9 45.5008 9.1 45.8008 9.4 46.0008C9.7 46.2008 10 46.4008 10.3 46.4008C10.6 46.5008 11 46.5008 11.3 46.4008L42.7 38.6008C43.2 38.5008 43.6 38.2008 44 37.8008C44.3 37.4008 44.5 36.9008 44.5 36.4008V14.2008C44.5 13.9008 44.4 13.5008 44.3 13.2008C44.1 12.9008 43.9 12.6008 43.6 12.4008C43.3 12.2008 43 12.0008 42.7 12.0008C42.4 11.9008 42 11.9008 41.7 12.0008Z" fill="white"/>
</g>
<mask id="mask3_633_43929" style="mask-type:luminance" maskUnits="userSpaceOnUse" x="5" y="9" width="51" height="44">
<path d="M55.2002 9.40039H5.2002V52.3004H55.2002V9.40039Z" fill="white"/>
</mask>
<g mask="url(#mask3_633_43929)">
<path d="M41.7 12.0008L10.3 19.8008C9.8 19.9008 9.4 20.2008 9 20.6008C8.7 21.0008 8.5 21.5008 8.5 22.0008V44.2008C8.5 44.6008 8.6 44.9008 8.7 45.2008C8.9 45.5008 9.1 45.8008 9.4 46.0008C9.7 46.2008 10 46.4008 10.3 46.4008C10.6 46.5008 11 46.5008 11.3 46.4008L42.7 38.6008C43.2 38.5008 43.6 38.2008 44 37.8008C44.3 37.4008 44.5 36.9008 44.5 36.4008V14.2008C44.5 13.9008 44.4 13.5008 44.3 13.2008C44.1 12.9008 43.9 12.6008 43.6 12.4008C43.3 12.2008 43 12.0008 42.7 12.0008C42.4 11.9008 42 11.9008 41.7 12.0008Z" stroke="#202188" stroke-linecap="round" stroke-linejoin="round"/>
</g>
<path d="M29.2002 35.5996L41.3002 32.5996M29.2002 37.8996L41.3002 34.8996" stroke="#202188" stroke-linecap="round" stroke-linejoin="round"/>
<path d="M8.5 26.3004V32.6004L44.6 23.1004V17.4004L8.5 26.3004Z" fill="#2F2FC1"/>
<path d="M8.5 26.3004V32.6004L44.6 23.1004V17.4004L8.5 26.3004Z" stroke="#202188" stroke-linecap="round" stroke-linejoin="round"/>
<mask id="mask4_633_43929" style="mask-type:luminance" maskUnits="userSpaceOnUse" x="5" y="9" width="51" height="44">
<path d="M55.2002 9.40039H5.2002V52.3004H55.2002V9.40039Z" fill="white"/>
</mask>
<g mask="url(#mask4_633_43929)">
<path d="M53.5002 17.5L51.0002 15.7C50.7002 15.5 50.4002 15.3 50.0002 15.2C49.6002 15.1 49.3002 15.1 48.9002 15.2L17.5002 23C17.0002 23.1 16.6002 23.4 16.2002 23.8C15.9002 24.2 15.7002 24.7 15.7002 25.2V47.5C15.7002 47.9 15.9002 48.3 16.1002 48.7C16.3002 49.1 16.6002 49.4 17.0002 49.6L19.5002 51.4L50.0002 42C50.5002 41.9 50.9002 41.6 51.3002 41.2C51.6002 40.8 51.8002 40.3 51.8002 39.8L53.5002 17.5Z" fill="#4949F3"/>
</g>
<mask id="mask5_633_43929" style="mask-type:luminance" maskUnits="userSpaceOnUse" x="5" y="9" width="51" height="44">
<path d="M55.2002 9.40039H5.2002V52.3004H55.2002V9.40039Z" fill="white"/>
</mask>
<g mask="url(#mask5_633_43929)">
<path d="M53.5002 17.5L51.0002 15.7C50.7002 15.5 50.4002 15.3 50.0002 15.2C49.6002 15.1 49.3002 15.1 48.9002 15.2L17.5002 23C17.0002 23.1 16.6002 23.4 16.2002 23.8C15.9002 24.2 15.7002 24.7 15.7002 25.2V47.5C15.7002 47.9 15.9002 48.3 16.1002 48.7C16.3002 49.1 16.6002 49.4 17.0002 49.6L19.5002 51.4L50.0002 42C50.5002 41.9 50.9002 41.6 51.3002 41.2C51.6002 40.8 51.8002 40.3 51.8002 39.8L53.5002 17.5Z" stroke="#202188" stroke-linecap="round" stroke-linejoin="round"/>
</g>
<mask id="mask6_633_43929" style="mask-type:luminance" maskUnits="userSpaceOnUse" x="5" y="9" width="51" height="44">
<path d="M55.2002 9.40039H5.2002V52.3004H55.2002V9.40039Z" fill="white"/>
</mask>
<g mask="url(#mask6_633_43929)">
<path d="M51.8006 17.3006L20.4006 25.1006C19.9006 25.2006 19.5006 25.5006 19.1006 25.9006C18.8006 26.3006 18.6006 26.8006 18.6006 27.3006V49.5006C18.6006 49.9006 18.7006 50.2006 18.8006 50.5006C19.0006 50.8006 19.2006 51.1006 19.5006 51.3006C19.8006 51.5006 20.1006 51.7006 20.4006 51.7006C20.7006 51.8006 21.1006 51.8006 21.4006 51.7006L52.8006 43.9006C53.3006 43.8006 53.7006 43.5006 54.1006 43.1006C54.4006 42.7006 54.6006 42.2006 54.6006 41.7006V19.5006C54.6006 19.2006 54.5006 18.8006 54.4006 18.5006C54.2006 18.2006 54.0006 17.9006 53.7006 17.7006C53.4006 17.5006 53.1006 17.3006 52.8006 17.3006C52.5006 17.2006 52.1006 17.2006 51.8006 17.3006Z" fill="white"/>
</g>
<mask id="mask7_633_43929" style="mask-type:luminance" maskUnits="userSpaceOnUse" x="5" y="9" width="51" height="44">
<path d="M55.2002 9.40039H5.2002V52.3004H55.2002V9.40039Z" fill="white"/>
</mask>
<g mask="url(#mask7_633_43929)">
<path d="M51.8006 17.3006L20.4006 25.1006C19.9006 25.2006 19.5006 25.5006 19.1006 25.9006C18.8006 26.3006 18.6006 26.8006 18.6006 27.3006V49.5006C18.6006 49.9006 18.7006 50.2006 18.8006 50.5006C19.0006 50.8006 19.2006 51.1006 19.5006 51.3006C19.8006 51.5006 20.1006 51.7006 20.4006 51.7006C20.7006 51.8006 21.1006 51.8006 21.4006 51.7006L52.8006 43.9006C53.3006 43.8006 53.7006 43.5006 54.1006 43.1006C54.4006 42.7006 54.6006 42.2006 54.6006 41.7006V19.5006C54.6006 19.2006 54.5006 18.8006 54.4006 18.5006C54.2006 18.2006 54.0006 17.9006 53.7006 17.7006C53.4006 17.5006 53.1006 17.3006 52.8006 17.3006C52.5006 17.2006 52.1006 17.2006 51.8006 17.3006Z" stroke="#202188" stroke-linecap="round" stroke-linejoin="round"/>
</g>
<path d="M39.2998 40.9004L51.3998 37.9004M39.2998 43.1004L51.3998 40.1004" stroke="#202188" stroke-linecap="round" stroke-linejoin="round"/>
<path d="M18.5996 31.5996V37.8996L54.6996 28.2996V22.5996L18.5996 31.5996Z" fill="#E4E4FB"/>
<mask id="mask8_633_43929" style="mask-type:luminance" maskUnits="userSpaceOnUse" x="5" y="9" width="51" height="44">
<path d="M55.2002 9.40039H5.2002V52.3004H55.2002V9.40039Z" fill="white"/>
</mask>
<g mask="url(#mask8_633_43929)">
<path d="M18.6006 31.6006V37.9006L54.7006 28.3006V22.6006L18.6006 31.6006Z" stroke="#202188" stroke-linecap="round" stroke-linejoin="round"/>
</g>
</svg>
